<svg id="visual" viewBox="0 0 900 600" width="900" height="600" xmlns="http://www.w3.org/2000/svg" xmlns:xlink="http://www.w3.org/1999/xlink" version="1.1"><rect x="0" y="0" width="900" height="600" fill="#575948"></rect><path d="M0 376L129 370L257 383L386 364L514 398L643 409L771 382L900 409L900 601L771 601L643 601L514 601L386 601L257 601L129 601L0 601Z" fill="#a6907c"></path><path d="M0 476L129 424L257 449L386 405L514 398L643 445L771 418L900 427L900 601L771 601L643 601L514 601L386 601L257 601L129 601L0 601Z" fill="#b29e8b"></path><path d="M0 509L129 511L257 437L386 441L514 507L643 494L771 506L900 482L900 601L771 601L643 601L514 601L386 601L257 601L129 601L0 601Z" fill="#bfad9a"></path><path d="M0 508L129 513L257 530L386 499L514 509L643 538L771 522L900 520L900 601L771 601L643 601L514 601L386 601L257 601L129 601L0 601Z" fill="#ccbcaa"></path><path d="M0 548L129 561L257 530L386 552L514 551L643 525L771 558L900 536L900 601L771 601L643 601L514 601L386 601L257 601L129 601L0 601Z" fill="#d9cbba"></path></svg>